<?xml version="1.0" encoding="iso-8859-1"?>
<!-- Generator: Adobe Illustrator 19.0.0, SVG Export Plug-In . SVG Version: 6.00 Build 0)  -->
<svg version="1.1" id="Layer_1" xmlns="http://www.w3.org/2000/svg" xmlns:xlink="http://www.w3.org/1999/xlink" x="0px" y="0px"
	 viewBox="0 0 512 512" style="enable-background:new 0 0 512 512;" xml:space="preserve">
<circle style="fill:#79C9DB;" cx="256" cy="256" r="256"/>
<path style="fill:#99DBFF;" d="M256,0C114.615,0,0,114.615,0,256s114.615,256,256,256V0z"/>
<path style="fill:#007C85;" d="M0.201,265.709C5.308,402.592,117.868,512,256,512s250.692-109.408,255.799-246.291H0.201z"/>
<path style="fill:#00A494;" d="M256,265.709H0.201C5.308,402.592,117.868,512,256,512V265.709z"/>
<g>
	<path style="fill:#FFFFFF;" d="M150.545,329.492c-8.033,0-14.545-6.512-14.545-14.545V211.674c0-8.033,6.512-14.545,14.545-14.545
		s14.545,6.512,14.545,14.545v103.273C165.091,322.98,158.579,329.492,150.545,329.492z"/>
	<path style="fill:#FFFFFF;" d="M192.727,329.492c-8.033,0-14.545-6.512-14.545-14.545V211.674c0-8.033,6.512-14.545,14.545-14.545
		s14.545,6.512,14.545,14.545v103.273C207.273,322.98,200.761,329.492,192.727,329.492z"/>
	<path style="fill:#FFFFFF;" d="M234.909,329.492c-8.033,0-14.545-6.512-14.545-14.545V211.674c0-8.033,6.512-14.545,14.545-14.545
		s14.545,6.512,14.545,14.545v103.273C249.455,322.98,242.943,329.492,234.909,329.492z"/>
</g>
<g>
	<path style="fill:#D0D0D0;" d="M277.091,329.492c-8.032,0-14.545-6.512-14.545-14.545V211.674c0-8.033,6.513-14.545,14.545-14.545
		s14.545,6.512,14.545,14.545v103.273C291.636,322.98,285.123,329.492,277.091,329.492z"/>
	<path style="fill:#D0D0D0;" d="M319.273,329.492c-8.032,0-14.545-6.512-14.545-14.545V211.674c0-8.033,6.513-14.545,14.545-14.545
		s14.545,6.512,14.545,14.545v103.273C333.818,322.98,327.305,329.492,319.273,329.492z"/>
	<path style="fill:#D0D0D0;" d="M361.455,329.492c-8.032,0-14.545-6.512-14.545-14.545V211.674c0-8.033,6.513-14.545,14.545-14.545
		S376,203.641,376,211.674v103.273C376,322.98,369.487,329.492,361.455,329.492z"/>
</g>
<g>
	<path style="fill:#637492;" d="M391.273,336.765H120.727c-8.033,0-14.545-6.512-14.545-14.545s6.512-14.545,14.545-14.545h270.545
		c8.032,0,14.545,6.512,14.545,14.545S399.305,336.765,391.273,336.765z"/>
	<path style="fill:#637492;" d="M416,374.583H96c-8.033,0-14.545-6.512-14.545-14.545S87.967,345.492,96,345.492h320
		c8.032,0,14.545,6.512,14.545,14.545S424.032,374.583,416,374.583z"/>
</g>
<g>
	<path style="fill:#84A2D1;" d="M256,307.674H120.727c-8.033,0-14.545,6.512-14.545,14.545s6.512,14.545,14.545,14.545H256V307.674z
		"/>
	<path style="fill:#84A2D1;" d="M256,345.492H96c-8.033,0-14.545,6.512-14.545,14.545S87.967,374.583,96,374.583h160V345.492z"/>
</g>
<path style="fill:#637492;" d="M394.484,145.123l-135.273-30.621c-2.113-0.479-4.308-0.479-6.423,0l-135.273,30.621
	c-6.628,1.501-11.334,7.391-11.334,14.186v48.343c0,8.033,6.512,14.545,14.545,14.545h270.545c8.032,0,14.545-6.512,14.545-14.545
	v-48.343C405.818,152.515,401.113,146.624,394.484,145.123z"/>
<path style="fill:#84A2D1;" d="M256,114.144c-1.078,0-2.154,0.119-3.212,0.359l-135.273,30.621
	c-6.628,1.501-11.334,7.391-11.334,14.186v48.343c0,8.033,6.512,14.545,14.545,14.545H256V114.144z"/>
<g>
</g>
<g>
</g>
<g>
</g>
<g>
</g>
<g>
</g>
<g>
</g>
<g>
</g>
<g>
</g>
<g>
</g>
<g>
</g>
<g>
</g>
<g>
</g>
<g>
</g>
<g>
</g>
<g>
</g>
</svg>
