<?xml version="1.0" standalone="no"?>
<!DOCTYPE svg PUBLIC "-//W3C//DTD SVG 20010904//EN"
 "http://www.w3.org/TR/2001/REC-SVG-20010904/DTD/svg10.dtd">
<svg version="1.0" xmlns="http://www.w3.org/2000/svg"
 width="256.000000pt" height="256.000000pt" viewBox="0 0 256.000000 256.000000"
 preserveAspectRatio="xMidYMid meet">

<g transform="translate(0.000000,256.000000) scale(0.100000,-0.100000)"
fill="#000000" stroke="none">
<path d="M120 1620 l0 -380 210 0 c186 0 210 2 210 16 0 12 -6 15 -26 10 -22
-6 -25 -4 -19 14 4 11 2 20 -4 20 -6 0 -11 5 -11 10 0 6 6 10 14 10 8 0 17 8
20 17 6 15 8 15 17 3 7 -11 9 0 7 35 -3 46 -5 50 -27 47 -17 -1 -22 2 -18 13
4 8 2 17 -3 20 -15 9 -12 25 4 25 8 0 17 8 20 17 6 15 8 15 16 3 7 -11 10 -1
10 31 0 53 -6 62 -32 48 -16 -9 -19 -7 -17 8 2 10 0 24 -4 31 -5 7 -3 12 6 12
8 0 18 10 21 23 7 21 7 21 16 2 6 -15 9 -6 9 34 1 52 0 53 -25 48 -19 -3 -24
-1 -19 11 3 8 0 21 -6 28 -9 11 -8 14 5 14 9 0 16 7 16 15 0 18 16 20 23 3 3
-7 6 11 6 41 1 52 1 53 -25 47 -22 -6 -25 -4 -19 14 4 11 2 20 -4 20 -6 0 -11
5 -11 10 0 6 6 10 14 10 8 0 17 8 20 17 6 15 8 15 16 3 8 -12 10 -10 10 8 l0
22 -210 0 -210 0 0 -380z m105 330 c10 0 11 -5 2 -25 -7 -14 -17 -23 -23 -21
-6 3 -17 -1 -23 -7 -8 -8 -11 -6 -11 9 0 11 -5 25 -12 32 -9 9 -7 12 10 12 14
0 22 6 22 18 1 16 1 16 11 0 5 -10 16 -18 24 -18z m145 10 c0 -5 7 -10 16 -10
13 0 14 -3 5 -14 -6 -7 -8 -22 -4 -32 6 -17 5 -17 -10 -5 -14 11 -20 11 -34 0
-15 -12 -16 -12 -10 5 4 10 2 25 -4 32 -9 11 -8 14 5 14 9 0 16 5 16 10 0 6 5
10 10 10 6 0 10 -4 10 -10z m-65 -90 c10 0 11 -5 2 -25 -7 -14 -16 -23 -22
-21 -5 2 -18 -1 -27 -6 -14 -6 -16 -5 -12 7 4 8 1 22 -6 30 -10 12 -9 15 4 15
9 0 19 7 23 16 5 15 7 15 15 0 5 -9 15 -16 23 -16z m171 0 c18 -1 18 -1 1 -11
-12 -7 -16 -17 -12 -30 7 -20 -9 -27 -20 -9 -5 8 -11 7 -21 -1 -11 -9 -14 -8
-14 8 0 10 -5 24 -12 31 -9 9 -7 12 10 12 14 0 22 6 22 18 1 16 1 16 14 0 7
-10 22 -18 32 -18z m-251 -80 c10 0 11 -5 2 -22 -14 -31 -50 -32 -64 -2 -10
21 -9 24 8 24 11 0 19 7 19 18 1 16 1 16 11 0 5 -10 16 -18 24 -18z m165 0
c10 0 10 -3 0 -15 -6 -8 -8 -20 -4 -26 5 -9 2 -10 -11 -6 -9 4 -25 2 -33 -5
-13 -11 -15 -10 -9 6 4 10 2 25 -4 32 -9 11 -8 14 5 14 9 0 16 8 16 18 1 16 1
16 14 0 7 -10 19 -18 26 -18z m-82 -81 c10 0 12 -3 5 -6 -7 -2 -13 -13 -13
-23 0 -26 -44 -21 -57 8 -9 17 -8 22 3 22 8 0 17 7 21 16 5 15 7 15 15 0 5 -9
17 -16 26 -17z m168 1 c18 -1 18 -1 1 -11 -12 -7 -16 -17 -11 -31 5 -17 3 -18
-13 -10 -10 5 -22 8 -28 6 -5 -2 -15 7 -22 21 -10 22 -9 25 8 25 11 0 19 7 19
18 1 16 1 16 14 0 7 -10 22 -18 32 -18z m-248 -80 c7 0 7 -7 0 -22 -13 -28
-58 -32 -58 -6 0 9 -6 19 -12 21 -7 3 -3 6 10 6 14 1 22 7 22 19 1 16 1 16 14
0 7 -10 18 -18 24 -18z m142 15 c0 -8 7 -15 16 -15 13 0 14 -3 4 -15 -6 -8 -9
-18 -6 -23 3 -5 -8 -9 -25 -9 -19 0 -28 5 -25 12 2 7 -1 18 -7 24 -8 8 -7 11
6 11 9 0 17 7 17 15 0 8 5 15 10 15 6 0 10 -7 10 -15z m-68 -120 c-2 -14 -12
-20 -32 -21 -21 -1 -27 3 -23 13 3 8 0 19 -8 24 -11 7 -10 9 4 9 10 0 20 6 23
14 8 22 41 -13 36 -39z m177 28 c2 -2 -2 -9 -8 -17 -7 -8 -10 -19 -7 -24 3 -5
-8 -9 -24 -8 -17 1 -30 6 -30 13 0 6 -3 18 -6 27 -4 11 -1 16 10 16 9 0 16 5
16 10 0 9 10 5 49 -17z m-239 -85 c0 -5 -5 -8 -11 -8 -6 0 -9 -9 -6 -20 5 -21
-7 -28 -18 -10 -5 8 -11 7 -21 -1 -11 -9 -14 -8 -14 8 0 10 -5 24 -12 31 -9 9
-7 12 10 12 12 0 22 4 22 9 0 5 11 4 25 -2 14 -7 25 -15 25 -19z m130 22 c0
-5 7 -10 15 -10 8 0 15 -4 15 -10 0 -5 -5 -10 -11 -10 -6 0 -8 -8 -4 -19 4
-15 0 -18 -25 -17 -23 1 -29 5 -24 19 3 9 1 17 -5 17 -6 0 -11 5 -11 10 0 6 7
10 15 10 8 0 15 5 15 10 0 6 5 10 10 10 6 0 10 -4 10 -10z m99 -90 c6 0 11 -4
11 -10 0 -5 -5 -10 -11 -10 -6 0 -8 -9 -4 -20 7 -21 -9 -28 -20 -10 -5 8 -11
7 -21 -1 -11 -9 -14 -8 -14 8 0 10 -5 24 -12 31 -9 9 -7 12 10 12 14 0 22 6
22 18 1 16 1 16 14 0 7 -10 18 -18 25 -18z m-160 -14 c-5 -6 -9 -19 -9 -29 0
-16 -3 -17 -14 -8 -10 8 -16 9 -21 1 -10 -16 -25 -12 -19 5 4 8 1 22 -6 30
-10 12 -9 15 9 15 11 0 21 4 21 9 0 5 11 4 24 -2 16 -8 21 -16 15 -21z m-81
-83 c-6 -7 -8 -20 -4 -28 4 -12 2 -13 -13 -6 -12 7 -22 6 -29 -1 -9 -9 -12 -7
-12 8 0 11 -5 25 -12 32 -9 9 -7 12 10 12 12 0 22 4 22 9 0 5 11 4 24 -2 18
-9 22 -15 14 -24z m142 27 c0 -5 7 -10 16 -10 13 0 14 -3 5 -14 -6 -7 -8 -21
-5 -31 6 -15 4 -16 -13 -7 -15 8 -23 8 -33 -1 -10 -10 -12 -8 -6 7 3 10 1 25
-5 32 -9 11 -8 14 5 14 9 0 16 5 16 10 0 6 5 10 10 10 6 0 10 -4 10 -10z"/>
<path d="M690 1991 c0 -21 13 -41 27 -41 13 0 13 -3 3 -15 -7 -8 -9 -22 -6
-31 4 -12 2 -15 -9 -10 -12 4 -15 -3 -15 -33 0 -50 8 -71 27 -71 13 0 13 -3 3
-15 -7 -8 -9 -22 -6 -31 4 -12 2 -15 -9 -10 -12 4 -15 -3 -15 -33 0 -50 8 -71
27 -71 12 0 13 -3 4 -14 -6 -8 -10 -20 -9 -27 2 -8 -3 -13 -9 -11 -9 1 -13
-13 -13 -44 0 -37 4 -47 20 -51 21 -6 28 -23 9 -23 -6 0 -9 -9 -6 -20 3 -13 0
-20 -9 -20 -10 0 -14 -13 -14 -46 0 -38 4 -47 20 -51 16 -4 18 -8 9 -19 -6 -8
-8 -21 -5 -30 4 -12 2 -15 -9 -10 -9 3 -15 0 -15 -9 0 -12 38 -15 243 -17
l242 -3 -65 -40 -65 -40 38 -3 37 -3 0 -280 0 -279 150 0 150 0 0 280 0 280
143 0 c78 0 172 3 210 7 l67 6 0 132 0 132 -67 6 c-38 4 -112 7 -165 7 l-97 0
-74 -45 -75 -45 -131 0 -131 0 0 55 0 55 220 0 220 0 85 53 86 52 -306 3 -305
2 0 55 0 55 370 0 370 0 0 50 0 50 -182 0 c-101 0 -267 3 -370 7 l-188 6 0 47
0 47 188 6 c103 4 269 7 370 7 l182 0 0 50 0 50 -575 0 c-343 0 -575 -4 -575
-9z m186 -67 c-6 -12 -14 -20 -19 -17 -4 2 -14 -1 -22 -7 -12 -10 -15 -9 -15
7 0 10 -5 24 -12 31 -9 9 -7 12 10 12 12 0 22 4 22 9 0 5 10 4 23 -2 20 -9 22
-14 13 -33z m160 0 c-6 -12 -14 -20 -19 -17 -4 2 -15 -1 -24 -9 -15 -11 -16
-11 -10 6 4 10 2 25 -4 32 -9 11 -8 14 5 14 9 0 16 4 16 9 0 5 10 4 23 -2 20
-9 22 -14 13 -33z m-243 -54 c19 -1 20 -2 5 -10 -11 -7 -14 -17 -10 -32 5 -21
4 -22 -11 -9 -14 11 -20 11 -33 0 -15 -12 -16 -11 -10 8 5 15 2 25 -11 32 -17
10 -16 10 3 11 12 0 25 8 29 18 8 16 8 16 12 0 3 -10 14 -18 26 -18z m160 0
c20 -1 20 -2 5 -11 -9 -5 -15 -15 -12 -22 2 -7 -5 -12 -21 -12 -17 0 -25 6
-25 17 0 9 -6 19 -12 21 -7 3 -3 6 10 6 12 1 22 7 23 14 0 10 2 10 6 0 2 -7
14 -13 26 -13z m-78 -80 c10 0 11 -5 2 -22 -14 -31 -50 -32 -64 -2 -10 21 -9
24 8 24 11 0 19 7 19 18 1 16 1 16 11 0 5 -10 16 -18 24 -18z m145 10 c0 -5 6
-10 14 -10 25 0 -4 -45 -30 -46 -13 -1 -21 2 -18 8 3 5 0 15 -6 23 -10 12 -9
15 4 15 9 0 16 5 16 10 0 6 5 10 10 10 6 0 10 -4 10 -10z m-227 -90 c19 -1 20
-2 5 -10 -11 -7 -14 -17 -10 -32 5 -21 4 -22 -11 -9 -14 11 -20 11 -34 0 -15
-12 -16 -12 -10 5 4 10 2 25 -4 32 -9 11 -8 14 4 14 8 0 18 8 22 18 8 16 8 16
12 0 3 -10 14 -18 26 -18z m155 0 c12 0 13 -3 5 -11 -6 -6 -9 -17 -7 -23 2 -6
-6 -11 -21 -11 -17 0 -25 6 -25 17 0 9 -6 19 -12 21 -7 3 -3 6 10 6 13 1 22 8
23 19 1 16 2 16 6 0 2 -10 12 -18 21 -18z m-70 -81 c10 0 12 -3 5 -6 -7 -2
-13 -12 -13 -21 0 -11 -8 -17 -25 -17 -17 0 -25 6 -25 17 0 9 -6 19 -12 21 -7
3 -3 6 10 6 14 1 22 7 22 19 1 16 1 16 11 0 5 -10 18 -18 27 -19z m142 11 c0
-5 8 -10 18 -10 14 0 14 -2 3 -9 -8 -5 -11 -16 -8 -24 4 -10 -2 -14 -23 -13
-15 1 -26 5 -23 9 3 4 -1 14 -7 22 -10 12 -9 15 4 15 9 0 16 5 16 10 0 6 5 10
10 10 6 0 10 -4 10 -10z m-240 -80 c10 -10 15 -22 10 -25 -5 -3 -7 -11 -4 -19
3 -9 -5 -13 -26 -13 -21 0 -29 4 -26 13 3 8 1 16 -4 19 -15 9 -12 25 5 25 8 0
15 5 15 10 0 15 8 12 30 -10z m169 -24 c-4 -5 -5 -16 -1 -25 5 -14 3 -14 -10
-3 -13 11 -18 11 -24 0 -6 -9 -10 -6 -14 12 -4 15 0 30 10 40 13 13 17 13 31
0 9 -8 13 -19 8 -24z m-76 -56 c16 0 18 -3 9 -12 -7 -7 -12 -21 -12 -32 0 -15
-3 -17 -12 -8 -8 8 -15 9 -25 1 -10 -9 -13 -7 -13 8 0 10 -5 24 -12 31 -9 9
-7 12 10 12 12 0 22 6 23 13 0 10 2 10 6 0 2 -7 14 -13 26 -13z m162 -36 c0
-17 -4 -20 -16 -13 -10 5 -21 3 -29 -4 -10 -10 -11 -7 -5 11 4 13 2 22 -4 22
-6 0 -11 5 -11 10 0 6 7 10 15 10 8 0 15 5 15 12 0 6 8 3 18 -7 9 -10 17 -28
17 -41z m-265 -34 c0 -5 7 -10 15 -10 8 0 15 -4 15 -10 0 -5 -4 -10 -9 -10 -5
0 -7 -8 -5 -17 4 -14 -2 -18 -26 -19 -25 -1 -29 2 -25 17 4 11 2 19 -4 19 -6
0 -11 5 -11 10 0 6 7 10 15 10 8 0 15 5 15 10 0 6 5 10 10 10 6 0 10 -4 10
-10z m176 -10 c8 0 14 -4 14 -10 0 -5 -4 -10 -10 -10 -5 0 -6 -8 -3 -17 5 -12
2 -15 -9 -11 -9 4 -21 1 -27 -5 -8 -8 -11 -7 -11 5 0 9 -3 23 -6 32 -4 11 -1
16 10 16 9 0 16 6 17 13 0 10 2 10 6 0 2 -7 11 -13 19 -13z m-70 -107 c-6 -13
-16 -21 -22 -19 -6 3 -17 -1 -23 -7 -8 -8 -11 -6 -11 9 0 11 -5 25 -12 32 -9
9 -7 12 10 12 12 0 22 4 22 9 0 5 10 4 23 -2 20 -9 22 -14 13 -34z m162 10
c-6 -7 -7 -20 -4 -29 5 -14 4 -15 -9 -4 -12 10 -18 10 -32 -1 -15 -12 -16 -12
-10 5 4 10 2 25 -4 32 -9 11 -8 14 5 14 9 0 16 4 16 9 0 5 11 4 24 -2 18 -9
22 -15 14 -24z"/>
<path d="M2060 1950 l0 -50 98 0 98 0 74 46 c41 25 77 48 79 50 2 2 -75 4
-172 4 l-177 0 0 -50z"/>
<path d="M2248 1736 c-220 -137 -228 -143 -228 -170 0 -21 6 -24 61 -30 34 -3
124 -6 200 -6 l139 0 0 155 c0 85 -1 155 -2 155 -2 0 -78 -47 -170 -104z"/>
<path d="M2103 1433 l-43 -4 0 -133 0 -133 61 -7 c34 -3 115 -6 180 -6 l119 0
0 145 0 145 -137 -2 c-76 -1 -157 -3 -180 -5z"/>
<path d="M120 1075 l0 -55 103 0 c56 0 146 3 200 7 l97 6 0 49 0 48 -200 0
-200 0 0 -55z"/>
<path d="M700 1080 l0 -50 38 -1 c20 -1 47 -4 59 -7 20 -6 16 -11 -37 -46 -57
-36 -60 -40 -60 -78 0 -31 3 -39 15 -34 8 3 82 47 164 98 l149 93 -67 5 -66 5
55 32 55 33 -152 0 -153 0 0 -50z"/>
<path d="M1720 1032 c25 -16 62 -38 83 -51 l37 -23 0 51 0 51 -82 0 -83 0 45
-28z"/>
<path d="M2063 1053 c-38 -4 -43 -7 -43 -28 0 -17 12 -33 43 -53 37 -26 217
-139 320 -201 l37 -23 0 156 0 156 -157 -2 c-87 -1 -177 -3 -200 -5z"/>
<path d="M879 897 c-90 -57 -176 -111 -191 -121 -27 -18 -28 -22 -28 -102 l0
-84 195 0 195 0 0 205 c0 113 -1 205 -3 205 -2 0 -77 -46 -168 -103z"/>
<path d="M1490 795 l0 -205 195 0 196 0 -3 86 -3 86 -165 105 c-91 57 -177
111 -192 119 l-28 15 0 -206z"/>
<path d="M120 860 l0 -50 175 0 c96 0 175 -3 175 -7 0 -5 -41 -32 -90 -60 -88
-53 -89 -53 -174 -53 l-86 0 0 -50 0 -50 86 0 87 0 113 75 114 75 0 85 0 85
-200 0 -200 0 0 -50z"/>
<path d="M2060 866 l0 -47 143 -93 c78 -51 159 -103 180 -115 l37 -23 0 55 0
54 -162 101 c-90 55 -171 104 -180 107 -16 6 -18 1 -18 -39z"/>
<path d="M488 656 c-48 -29 -91 -55 -94 -59 -4 -4 38 -7 94 -7 l102 0 0 60 c0
33 -3 60 -7 59 -5 0 -47 -24 -95 -53z"/>
<path d="M2020 631 l0 -41 67 0 c74 0 74 3 -9 49 l-58 32 0 -40z"/>
</g>
</svg>
