<?xml version="1.0" encoding="iso-8859-1"?>
<!-- Generator: Adobe Illustrator 19.0.0, SVG Export Plug-In . SVG Version: 6.00 Build 0)  -->
<svg version="1.1" id="Layer_1" xmlns="http://www.w3.org/2000/svg" xmlns:xlink="http://www.w3.org/1999/xlink" x="0px" y="0px"
	 viewBox="0 0 512.002 512.002" style="enable-background:new 0 0 512.002 512.002;" xml:space="preserve">
<path style="fill:#10BAFC;" d="M501.529,219.532L303.279,21.284c-14.451-14.451-37.851-14.479-52.266-0.064L20.897,251.335
	l0.008,0.008c-14.114,14.438-13.994,37.609,0.356,51.959l198.249,198.25L501.529,219.532z"/>
<path style="fill:#FFFFFF;" d="M271.713,449.348L73.464,251.098c-14.451-14.451-37.852-14.479-52.268-0.064l0,0
	C6.781,265.45,6.809,288.85,21.259,303.3l198.249,198.25L271.713,449.348z"/>
<path d="M176.421,419.285c-2.674,0-5.349-1.02-7.389-3.061l-2.693-2.693c-4.081-4.081-4.081-10.697,0-14.779
	c4.081-4.081,10.697-4.081,14.779,0l2.693,2.693c4.081,4.081,4.081,10.697,0,14.779
	C181.769,418.264,179.095,419.285,176.421,419.285z"/>
<path d="M154.268,397.131c-2.674,0-5.349-1.02-7.389-3.061L40.316,287.507c-4.081-4.081-4.081-10.697,0-14.779
	c4.081-4.081,10.697-4.081,14.779,0l106.563,106.563c4.081,4.081,4.081,10.697,0,14.779
	C159.617,396.111,156.942,397.131,154.268,397.131z"/>
<path d="M316.41,144.834c-1.959-1.96-4.618-3.061-7.389-3.061h-47.853c-5.771,0-10.449,4.678-10.449,10.449
	s4.678,10.449,10.449,10.449h22.625l-8.638,8.638h-43.522c-5.771,0-10.449,4.678-10.449,10.449s4.678,10.449,10.449,10.449h22.623
	l-8.638,8.638l-43.524,0.001c-5.771,0-10.449,4.679-10.449,10.449c0,5.771,4.678,10.449,10.449,10.449l22.625-0.001l-20.319,20.319
	l-16.613-16.613c-4.081-4.081-10.697-4.081-14.779,0c-4.081,4.081-4.081,10.697,0,14.779l48.003,48.004
	c2.041,2.041,4.715,3.061,7.389,3.061c2.674,0,5.349-1.02,7.389-3.061c4.081-4.081,4.081-10.697,0-14.779l-16.611-16.613
	l20.318-20.318v22.624c0,5.771,4.678,10.449,10.449,10.449s10.449-4.678,10.449-10.449v-43.523l8.639-8.639v22.624
	c0,5.771,4.679,10.449,10.449,10.449c5.771,0,10.449-4.679,10.449-10.449l-0.001-43.522l8.637-8.636v22.624
	c0,5.771,4.678,10.449,10.449,10.449c5.77,0,10.449-4.678,10.449-10.449l0.001-47.852
	C319.471,149.451,318.37,146.793,316.41,144.834z"/>
<rect x="310.358" y="124.549" transform="matrix(-0.7071 -0.7071 0.7071 -0.7071 323.9144 782.0992)" style="fill:#FF4444;" width="27.155" height="398.831"/>
<path d="M508.917,212.143L310.667,13.894c-18.502-18.501-48.578-18.529-67.045-0.065L13.507,243.946
	c-0.162,0.162-0.317,0.328-0.466,0.497c-17.653,18.492-17.326,48.09,0.831,66.247l198.249,198.25
	c2.041,2.041,4.715,3.061,7.389,3.061c2.674,0,5.349-1.02,7.389-3.061l282.019-282.02
	C512.998,222.84,512.998,216.224,508.917,212.143z M459.781,192.564L244.744,407.601l-4.423-4.423L455.357,188.14L459.781,192.564z
	 M190.99,458.254l-2.873-2.873l37.426-37.425l4.423,4.423l-37.425,37.425L190.99,458.254z M258.4,28.608
	c10.319-10.317,27.136-10.29,37.489,0.065l144.689,144.689L225.543,388.399l-144.69-144.69c-6.793-6.792-15.28-11.27-24.505-13.048
	L258.4,28.608z M28.377,258.648c0.078-0.08,0.155-0.162,0.231-0.245c10.32-10.297,27.122-10.263,37.468,0.085l144.689,144.69
	l-37.425,37.425l-144.69-144.69C18.416,285.679,18.294,268.962,28.377,258.648z M219.509,486.773l-12.191-12.191l37.426-37.425
	l12.19,12.191L219.509,486.773z M271.713,434.569l-12.191-12.191l215.037-215.037l12.191,12.191L271.713,434.569z"/>
<g>
</g>
<g>
</g>
<g>
</g>
<g>
</g>
<g>
</g>
<g>
</g>
<g>
</g>
<g>
</g>
<g>
</g>
<g>
</g>
<g>
</g>
<g>
</g>
<g>
</g>
<g>
</g>
<g>
</g>
</svg>
